General
Complete name : Dead Before Dawn 2012 HDRip x264 AAC-UNiQUE.mp4
Format : MPEG-4
Format profile : Base Media
Codec ID : isom
File size : 1.40 GiB
Duration : 1h 24mn
Overall bit rate mode : Variable
Overall bit rate : 2 357 Kbps
Encoded date : UTC 2012-09-30 20:14:43

Video
ID : 1
Format : AVC
Format/Info : Advanced Video Codec
Format profile : High@L4.1
Format settings, CABAC : Yes
Format settings, ReFrames : 3 frames
Codec ID : avc1
Codec ID/Info : Advanced Video Coding
Duration : 1h 24mn
Bit rate mode : Variable
Bit rate : 2 229 Kbps
Maximum bit rate : 40.0 Mbps
Width : 720 pixels
Height : 400 pixels
Display aspect ratio : 16:9
Frame rate mode : Constant
Frame rate : 25.000 fps
Color space : YUV
Chroma subsampling : 4:2:0
Bit depth : 8 bits
Scan type : Progressive
Bits/(Pixel*Frame) : 0.310
Stream size : 1.32 GiB (95%)
Writing library : x264 core 128 r2216 198a7ea

Audio
ID : 2
Format : AAC
Format/Info : Advanced Audio Codec
Format profile : LC
Codec ID : 40
Duration : 1h 24mn
Bit rate mode : Variable
Bit rate : 125 Kbps
Maximum bit rate : 151 Kbps
Channel(s) : 2 channels
Channel positions : Front: L R
Sampling rate : 48.0 KHz
Compression mode : Lossy
Stream size : 75.6 MiB (5%)
Language : English
Encoded date : UTC 2012-09-30 20:15:52

Source : MULTi.720p.HDTV.x264-psig - Thanks!

Storyline
A bunch of college kids accidentally unleash an evil curse that causes people to kill themselves and turn into Zombie Demons, aka ZEMONS!

iMDB: http://www.imdb.com/title/tt1989485/
 
http://imageshack.us/a/img209/8706/25758824.png 
http://imageshack.us/a/img109/7968/84246111.png 
http://imageshack.us/a/img4/8721/56312676.png 
http://imageshack.us/a/img651/8057/21603928.png 
http://imageshack.us/a/img842/2851/55394408.png